<?xml version="1.0" standalone="no"?>
<!DOCTYPE svg PUBLIC "-//W3C//DTD SVG 1.1//EN" "http://www.w3.org/Graphics/SVG/1.1/DTD/svg11.dtd" >
<svg>
<metadata>
Created by FontForge 20090622 at Wed Mar 30 07:31:41 2016
 By deploy user
Copyright 1994 DoubleAlex Team. All rights reserved.
</metadata>
<defs>
<font id="EurofontC-Bold" horiz-adv-x="666" >
  <font-face 
    font-family="EurofontC"
    font-weight="700"
    font-stretch="normal"
    units-per-em="1000"
    panose-1="0 0 8 0 0 0 0 0 0 0"
    ascent="784"
    descent="-216"
    x-height="486"
    cap-height="694"
    bbox="-37 -216 1188 929"
    underline-thickness="50"
    underline-position="-50"
    unicode-range="U+0020-U+2265"
  />
<missing-glyph horiz-adv-x="1000" 
 />
    <glyph glyph-name=".notdef" horiz-adv-x="1000" 
 />
    <glyph glyph-name=".null" horiz-adv-x="0" 
 />
    <glyph glyph-name="nonmarkingreturn" horiz-adv-x="333" 
 />
    <glyph glyph-name="space" unicode=" " horiz-adv-x="333" 
 />
    <glyph glyph-name="space" unicode="&#xa0;" horiz-adv-x="333" 
 />
    <glyph glyph-name="exclam" unicode="!" horiz-adv-x="323" 
d="M237 161v-161h-150v161h150zM248 694l-7 -421h-159l-6 421h172z" />
    <glyph glyph-name="quotedbl" unicode="&#x22;" horiz-adv-x="409" 
d="M38 694h128v-121l-39 -119h-50l-39 119v121zM243 694h128v-121l-39 -119h-50l-39 119v121z" />
    <glyph glyph-name="numbersign" unicode="#" 
d="M261 694h98l-36 -195h93l36 195h97l-36 -195h74v-106h-90l-22 -120h86v-107h-109l-30 -166h-98l30 166h-93l-31 -166h-98l31 166h-84v107h104l22 120h-88v106h108zM303 393l-22 -120h95l24 120h-97z" />
    <glyph glyph-name="dollar" unicode="$" 
d="M286 427l90 -8q129 -12 171 -27q75 -27 92 -108q6 -29 6 -68q0 -125 -61 -173.5t-208 -48.5v-85h-90v85q-69 0 -114 8.5t-81.5 33t-53 71.5t-16.5 121h167q0 -60 20 -74.5t78 -14.5h90q32 0 45.5 1t29.5 7.5t21.5 21.5t5.5 41q0 38 -18.5 50.5t-83.5 17.5l-90 7
q-85 6 -134.5 18t-77 37t-35.5 57.5t-8 89.5q0 129 53 170.5t202 41.5v76h90v-76q37 -2 60 -4.5t52 -8t46.5 -14.5t36 -24.5t28.5 -37t16.5 -52.5t6.5 -71h-162q0 44 -17.5 56t-66.5 12h-90q-49 0 -69 -12.5t-20 -55.5q0 -36 16 -45.5t73 -14.5z" />
    <glyph glyph-name="percent" unicode="%" horiz-adv-x="839" 
d="M686 694l-409 -694h-111l409 694h111zM818 222v-102q0 -79 -33.5 -102.5t-119.5 -23.5t-117 23t-31 102v102q0 79 31 102.5t116 23.5q87 0 120.5 -23t33.5 -102zM725 134v77q0 39 -10.5 47t-50.5 8q-36 0 -45 -8t-9 -47v-77q0 -42 9 -50.5t45 -8.5q38 0 49.5 9t11.5 50z
M322 574v-101q0 -79 -33 -102.5t-120 -23.5q-86 0 -117 23t-31 102v101q0 79 31 102.5t116 23.5q88 0 121 -23t33 -102zM229 487v76q0 39 -10.5 47.5t-50.5 8.5q-36 0 -45 -8.5t-9 -47.5v-76q0 -42 9 -51t45 -9q38 0 49.5 9t11.5 51z" />
    <glyph glyph-name="ampersand" unicode="&#x26;" horiz-adv-x="716" 
d="M447 156l-184 159q-16 -1 -25.5 -8.5t-13 -22.5t-4 -23t-0.5 -28q0 -23 3 -39t13 -26t17 -15.5t27.5 -7.5t31 -2.5t39.5 -0.5q64 0 96 14zM621 0l-64 57q-21 -29 -59.5 -44t-66.5 -17t-80 -2q-60 0 -100 3.5t-81.5 16t-65.5 36t-39 65t-15 100.5q0 179 123 181
q-33 28 -43 51t-10 66q0 113 53.5 149.5t177.5 36.5q65 0 105 -6t73.5 -25.5t48 -57.5t14.5 -100v-35h-159q2 57 -12 72q-13 14 -70 14q-36 0 -48.5 -12t-12.5 -49q0 -21 8.5 -35.5t28.5 -32.5l171 -152v92h147v-136q0 -30 -19 -68l77 -69z" />
    <glyph glyph-name="quotesingle" unicode="'" horiz-adv-x="203" 
d="M38 694h128v-121l-39 -119h-50l-39 119v121z" />
    <glyph glyph-name="parenleft" unicode="(" horiz-adv-x="356" 
d="M53 155v245q0 137 14 185q23 75 103 99q50 15 133 15v-151q-48 0 -61.5 -26.5t-13.5 -91.5v-300q0 -29 1.5 -44.5t8 -35t23 -28.5t42.5 -9v-152q-40 0 -71.5 3.5t-56.5 8.5t-43.5 17t-31.5 23t-21.5 31.5t-14 38.5t-8 49t-3 56.5t-0.5 66.5z" />
    <glyph glyph-name="parenright" unicode=")" horiz-adv-x="356" 
d="M303 400v-245q0 -41 -0.5 -66.5t-3 -56.5t-8 -49t-14 -38.5t-21.5 -31.5t-31.5 -23t-43.5 -17t-56.5 -8.5t-71.5 -3.5v152q26 0 42.5 9t23 28.5t8 35t1.5 44.5v300q0 65 -13.5 91.5t-61.5 26.5v151q162 0 212 -65q35 -46 37 -162q1 -22 1 -72z" />
    <glyph glyph-name="asterisk" unicode="*" 
d="M523 522l-116 -36l69 -99l-67 -52l-72 103l-78 -102l-70 51l72 100l-118 42l30 81l117 -41v125h86v-125l120 41z" />
    <glyph glyph-name="plus" unicode="+" horiz-adv-x="555" 
d="M224 309v177h106v-177h179v-106h-179v-185h-106v185h-178v106h178z" />
    <glyph glyph-name="comma" unicode="," horiz-adv-x="333" 
d="M88 155h150v-155q0 -73 -33.5 -102.5t-125.5 -28.5v69q39 1 52.5 14t13.5 48h-57v155z" />
    <glyph glyph-name="hyphen" unicode="-" horiz-adv-x="252" 
d="M0 331h252v-152h-252v152z" />
    <glyph glyph-name="hyphen" unicode="&#xad;" horiz-adv-x="252" 
d="M0 331h252v-152h-252v152z" />
    <glyph glyph-name="period" unicode="." horiz-adv-x="333" 
d="M233 161v-161h-150v161h150z" />
    <glyph glyph-name="slash" unicode="/" horiz-adv-x="589" 
d="M562 694l-408 -799h-126l408 799h126z" />
    <glyph glyph-name="zero" unicode="0" 
d="M333 699q38 0 62.5 -1t58 -6t55 -14.5t45 -27.5t37 -43.5t22.5 -63.5t9 -87v-218q0 -68 -17 -115t-41.5 -72t-67 -38.5t-76 -16t-87.5 -2.5t-87.5 2.5t-76 16t-67 38.5t-41.5 72t-17 115v218q0 49 9 87t22.5 63.5t37 43.5t45 27.5t55 14.5t58 6t62.5 1zM333 547
q-28 0 -41 -0.5t-29 -4.5t-21.5 -11t-12 -21t-8 -33.5t-1.5 -50.5v-159q0 -45 3.5 -68.5t19.5 -35.5t32.5 -14t57.5 -2t57.5 2t32.5 14t19.5 35.5t3.5 68.5v159q0 31 -1.5 50.5t-8 33.5t-12 21t-21.5 11t-29 4.5t-41 0.5z" />
    <glyph glyph-name="one" unicode="1" 
d="M516 694v-694h-185v530l-179 -164l-105 119l253 209h216z" />
    <glyph glyph-name="two" unicode="2" 
d="M605 144v-144h-548v144q0 63 7.5 98t37 62t72.5 42t128 35q93 22 109.5 34t16.5 63q0 50 -19 63.5t-78 13.5q-65 -1 -81.5 -13.5t-16.5 -66.5v-35h-176v35q0 69 17 114t54.5 68.5t84.5 32.5t118 9q69 0 112.5 -7t83.5 -28.5t58.5 -66.5t18.5 -116q0 -59 -8.5 -95t-33 -61
t-57 -39t-92.5 -30q-28 -8 -61 -15l-48.5 -10.5t-32.5 -9.5t-23 -15t-10.5 -23.5t-4.5 -38.5h372z" />
    <glyph glyph-name="three" unicode="3" 
d="M288 288v134h44q66 0 81.5 10t15.5 46q0 48 -15.5 62.5t-81.5 14.5q-31 0 -44.5 -1.5t-28.5 -9t-20 -24t-5 -45.5v-14h-176v24q0 42 6.5 74t18 55t31.5 38.5t40.5 24.5t52.5 14t61 6.5t72 1.5q34 0 59 -1.5t59 -7t57.5 -18.5t45.5 -32.5t33 -52t11 -75.5
q0 -142 -106 -156v-7q114 -5 114 -149q0 -65 -19.5 -107.5t-59.5 -63.5t-84 -28t-110 -7q-57 0 -93 3t-77 15t-64.5 34t-39 62t-15.5 98v37h176v-23q0 -53 24 -67t81 -14q63 0 84.5 13.5t21.5 70.5q0 38 -18.5 51.5t-87.5 13.5h-44z" />
    <glyph glyph-name="four" unicode="4" 
d="M572 694v-423h59v-134h-59v-137h-176v137h-363v198l266 359h273zM396 271v280h-7l-210 -280h217z" />
    <glyph glyph-name="five" unicode="5" 
d="M60 202h176q3 -41 23.5 -52t65.5 -11q66 0 85.5 14t19.5 77q0 27 -0.5 39.5t-4 28t-9.5 21t-18 11.5t-29 7.5t-44 1.5q-50 0 -66 -5t-23 -29h-159v389h501v-134h-342v-134q33 35 58.5 43t93.5 8q124 0 171 -51.5t47 -175.5q0 -83 -15 -133.5t-51.5 -77.5t-85 -36
t-129.5 -9q-137 0 -199 42.5t-66 165.5z" />
    <glyph glyph-name="six" unicode="6" 
d="M317 277q-53 0 -71 -11t-18 -50q0 -49 16 -63t73 -14q76 0 94 12t18 68q0 40 -21.5 49t-90.5 9zM610 482h-175q0 48 -20 60.5t-76 12.5q-69 0 -89.5 -15.5t-20.5 -80.5v-110h2q9 26 20.5 41t30 21.5t33 8t42.5 1.5q69 0 109 -6t75 -26t49.5 -60.5t14.5 -106.5
q0 -71 -16 -116.5t-51.5 -70t-81.5 -33t-117 -8.5q-90 0 -141.5 10.5t-85.5 42.5t-46 85t-12 143v174q0 80 15.5 129.5t53 76t86.5 35.5t130 9q43 0 70.5 -1.5t63 -7t56.5 -17.5t41.5 -32t30 -52.5t9.5 -76.5v-30z" />
    <glyph glyph-name="seven" unicode="7" 
d="M577 694v-156l-230 -538h-194l235 538h-334v156h523z" />
    <glyph glyph-name="eight" unicode="8" 
d="M331 286q-65 0 -84.5 -13t-19.5 -61q0 -44 21.5 -58.5t82.5 -14.5q40 0 61 2.5t32 13t13 22.5t2 38q0 48 -18 59.5t-90 11.5zM333 -6q-51 0 -87 3t-75.5 14.5t-63.5 32t-40 58t-16 89.5q0 66 32 112t94 48v7q-62 15 -87.5 52.5t-25.5 105.5q0 41 10 72t30 50.5t43 32
t56.5 18.5t62 8t67.5 2q52 0 86 -2.5t73 -13.5t61 -31t37 -56t15 -88q0 -70 -21 -100t-85 -50v-7q116 -15 116 -160q0 -53 -15.5 -90.5t-38.5 -58t-63 -31.5t-75.5 -14t-89.5 -3zM333 420q61 0 78.5 12t17.5 60q0 39 -16 51t-80 12q-59 0 -76 -12t-17 -57q0 -43 19 -54.5
t74 -11.5z" />
    <glyph glyph-name="nine" unicode="9" 
d="M346 417q53 0 71 11t18 50q0 49 -15.5 63t-73.5 14q-76 0 -94 -12.5t-18 -67.5q0 -18 5 -29t10.5 -17t23 -8.5t29.5 -3t44 -0.5zM53 212h175q0 -49 19.5 -61t77.5 -12q68 0 88.5 15t20.5 81v110h-2q-9 -26 -20.5 -41t-30 -21.5t-33 -8t-42.5 -1.5q-45 0 -75.5 2t-61 9
t-49 20.5t-34 35.5t-22 54.5t-6.5 77.5q0 71 16 116.5t52 69.5t81.5 32.5t117.5 8.5q89 0 141 -10.5t86 -42t46 -84.5t12 -143v-174q0 -80 -15.5 -129.5t-53 -76.5t-86.5 -36t-130 -9q-53 0 -85 2t-72 12.5t-62 29.5t-37.5 55.5t-15.5 88.5v30z" />
    <glyph glyph-name="colon" unicode=":" horiz-adv-x="333" 
d="M233 161v-161h-150v161h150zM233 486v-161h-150v161h150z" />
    <glyph glyph-name="semicolon" unicode=";" horiz-adv-x="333" 
d="M79 -131v69q39 1 52.5 14t13.5 48h-57v155h150v-155q0 -73 -33.5 -102.5t-125.5 -28.5zM238 486v-161h-150v161h150z" />
    <glyph glyph-name="less" unicode="&#x3c;" horiz-adv-x="555" 
d="M509 486v-119l-313 -110v-2l313 -110v-118l-463 174v111z" />
    <glyph glyph-name="equal" unicode="=" horiz-adv-x="555" 
d="M46 415h463v-106h-463v106zM46 203h463v-107h-463v107z" />
    <glyph glyph-name="greater" unicode="&#x3e;" horiz-adv-x="555" 
d="M46 486l463 -174v-111l-463 -174v118l313 110v2l-313 110v119z" />
    <glyph glyph-name="question" unicode="?" horiz-adv-x="560" 
d="M334 245h-159v28q0 67 16 95t78 58l33 16q21 10 30.5 16.5t18 22.5t8.5 40q0 35 -16.5 45.5t-57.5 10.5q-28 0 -43.5 -3t-27.5 -15.5t-12 -37.5v-29h-159v29q0 58 16 94.5t50.5 54t74 23.5t101.5 6q59 0 97 -6t71.5 -24t49 -54.5t15.5 -93.5q0 -59 -14.5 -94t-40 -54
t-79.5 -43q-29 -13 -39.5 -24.5t-10.5 -32.5v-28zM329 161v-161h-150v161h150z" />
    <glyph glyph-name="at" unicode="@" horiz-adv-x="703" 
d="M269 325q0 -35 19 -58.5t51 -23.5q42 0 68.5 30.5t26.5 72.5q0 34 -20.5 56.5t-53.5 22.5q-38 0 -64.5 -31t-26.5 -69zM461 468l9 47h88l-46 -270q-4 -13 -2.5 -23t14.5 -10q32 0 60.5 49t28.5 120q0 110 -69.5 172.5t-178.5 62.5q-115 0 -186.5 -77t-71.5 -194
q0 -121 77 -194t197 -73q96 0 177 62h91q-105 -146 -275 -146q-151 0 -255 100t-104 251q0 149 102.5 251.5t250.5 102.5q78 0 151.5 -36.5t121.5 -104t48 -146.5q0 -106 -69 -188t-162 -82q-25 0 -40 12t-14 34l-2 2q-37 -44 -88 -44q-62 0 -109 48.5t-47 115.5
q0 85 53 149t136 64q73 0 114 -55z" />
    <glyph glyph-name="A" unicode="A" horiz-adv-x="678" 
d="M464 119h-248l-35 -119h-192l208 694h281l211 -694h-189zM427 254l-86 301h-2l-84 -301h172z" />
    <glyph glyph-name="B" unicode="B" horiz-adv-x="683" 
d="M55 0v694h365q114 0 166.5 -35.5t52.5 -142.5q0 -73 -22 -111t-87 -49v-7q72 -5 96 -43.5t24 -112.5q0 -50 -10 -85t-27 -56t-46.5 -33t-62 -15.5t-80.5 -3.5h-369zM240 542v-126h134q49 0 64.5 13t15.5 54q0 33 -10.5 46t-47.5 13h-156zM240 288v-136h140q47 0 66 14.5
t19 55.5t-17 53.5t-64 12.5h-144z" />
    <glyph glyph-name="C" unicode="C" horiz-adv-x="673" 
d="M643 242q0 -49 -2.5 -75.5t-17 -62t-44.5 -59.5q-29 -24 -70 -36t-68 -13.5t-82 -1.5q-48 0 -78 1t-68.5 6.5t-62 16t-48.5 29.5t-38.5 47t-22.5 69t-9 94v180q0 67 15 115t40.5 76.5t69 44.5t89.5 21t113 5q64 0 103 -3.5t77.5 -16.5t58.5 -37.5t32 -66t12 -103.5v-27
h-191v27q-2 22 -10.5 36t-25 20.5t-33 8t-43.5 1.5q-76 0 -96 -26t-20 -105v-108q0 -36 1.5 -55.5t7.5 -39.5t18.5 -29t34 -14.5t54.5 -5.5q64 0 88.5 15t24.5 72v21h191v-21z" />
    <glyph glyph-name="D" unicode="D" horiz-adv-x="717" 
d="M48 0v694h352q147 0 213 -61.5t66 -207.5v-146q0 -146 -56.5 -212.5t-197.5 -66.5h-377zM233 533v-372h162q93 0 93 118v146q0 64 -21 86t-72 22h-162z" />
    <glyph glyph-name="E" unicode="E" horiz-adv-x="627" 
d="M244 542v-127h296v-128h-296v-135h322v-152h-507v694h501v-152h-316z" />
    <glyph glyph-name="F" unicode="F" horiz-adv-x="570" 
d="M236 542v-136h283v-152h-283v-254h-185v694h492v-152h-307z" />
    <glyph glyph-name="G" unicode="G" horiz-adv-x="701" 
d="M666 478h-188q-1 20 -9 34t-17.5 21t-28.5 10.5t-30 4t-34 0.5q-50 0 -78 -7t-41.5 -28.5t-16.5 -45t-3 -72.5v-113q0 -87 30 -111.5t109 -24.5q71 0 95 23t24 95h-127v128h315v-121q0 -60 -5 -102t-19.5 -74t-35.5 -50.5t-57.5 -30.5t-80.5 -16t-109 -4
q-89 0 -144.5 9.5t-100.5 37t-64.5 80t-19.5 135.5v180q0 67 15.5 115t41 76.5t69 44.5t90 21.5t113.5 5.5q140 0 192 -16q89 -28 109 -129q6 -33 6 -76z" />
    <glyph glyph-name="H" unicode="H" horiz-adv-x="729" 
d="M671 694v-694h-185v272h-242v-272h-185v694h185v-261h242v261h185z" />
    <glyph glyph-name="I" unicode="I" horiz-adv-x="300" 
d="M242 694v-694h-185v694h185z" />
    <glyph glyph-name="J" unicode="J" horiz-adv-x="557" 
d="M317 694h185v-480q0 -71 -11 -113t-41.5 -66.5t-75 -32.5t-121.5 -8q-144 0 -188.5 46.5t-44.5 192.5v57h176v-57q0 -45 10.5 -61.5t46.5 -16.5q41 0 52.5 12t11.5 47v480z" />
    <glyph glyph-name="K" unicode="K" horiz-adv-x="729" 
d="M686 0h-122q-107 0 -107 104v81q0 87 -76 87h-137v-272h-185v694h185v-261h129q80 0 80 87v70q0 104 107 104h118v-118h-4q-12 0 -17 -0.5t-11.5 -4.5t-9 -13.5t-2.5 -25.5v-55q0 -116 -117 -121v-3q58 -2 91.5 -34.5t33.5 -90.5v-66q0 -17 2.5 -26.5t10.5 -13t12 -4
t19 -0.5v-118z" />
    <glyph glyph-name="L" unicode="L" horiz-adv-x="541" 
d="M239 694v-533h289v-161h-474v694h185z" />
    <glyph glyph-name="M" unicode="M" horiz-adv-x="970" 
d="M223 532l18 -532h-185v694h294l132 -436h6l126 436h301v-694h-185l18 532h-6l-176 -532h-160l-178 532h-5z" />
    <glyph glyph-name="N" unicode="N" horiz-adv-x="806" 
d="M230 533l11 -533h-185v694h313l199 -533h7l-11 533h185v-694h-315l-196 533h-8z" />
    <glyph glyph-name="O" unicode="O" horiz-adv-x="703" 
d="M351 -6q-60 0 -105.5 6t-87.5 22.5t-68.5 44.5t-42.5 73.5t-16 108.5v196q0 78 22.5 129.5t68.5 78t99.5 36.5t129.5 10q77 0 130.5 -10t99.5 -36.5t68.5 -78t22.5 -129.5v-196q0 -63 -16 -108.5t-42.5 -73.5t-69 -44.5t-87.5 -22.5t-106 -6zM351 155q78 0 104.5 20
t26.5 94v156q0 73 -26.5 93t-104.5 20q-77 0 -103.5 -20t-26.5 -93v-156q0 -74 26.5 -94t103.5 -20z" />
    <glyph glyph-name="P" unicode="P" horiz-adv-x="658" 
d="M239 0h-185v694h348q128 0 182.5 -59t54.5 -196q0 -77 -9.5 -124t-36.5 -79t-72 -45t-119 -13h-163v-178zM239 339h126q55 0 69.5 17t14.5 83q0 56 -15.5 75t-68.5 19h-126v-194z" />
    <glyph glyph-name="Q" unicode="Q" horiz-adv-x="736" 
d="M401 350l98 -71v113q0 94 -23 120t-109 26q-85 0 -107.5 -26t-22.5 -120v-125q0 -39 7 -62t25.5 -34t38.5 -13.5t60 -2.5q56 0 82 11l-123 80zM676 -1l-68 55q-30 -26 -76 -40.5t-80 -17t-84 -2.5q-86 0 -141.5 11.5t-98.5 41.5t-62.5 85.5t-19.5 141.5v146q0 84 20 139
t63 85.5t99 42.5t140 12t140 -12t99 -42.5t63 -85.5t20 -139v-174q0 -52 -14 -92l76 -52z" />
    <glyph glyph-name="R" unicode="R" horiz-adv-x="686" 
d="M668 0h-122q-107 0 -107 104v71q0 87 -77 87h-124v-262h-185v694h352q114 0 166.5 -38.5t52.5 -152.5q0 -80 -25.5 -119t-92.5 -46v-3q57 -2 87.5 -34.5t30.5 -90.5v-48q0 -17 2.5 -26.5t10.5 -13t12 -4t19 -0.5v-118zM439 466q0 48 -10 62t-48 14h-143v-145h121
q51 0 65.5 11t14.5 58z" />
    <glyph glyph-name="S" unicode="S" horiz-adv-x="662" 
d="M296 427l77 -5q82 -5 127.5 -14t76.5 -31.5t41.5 -58t10.5 -96.5v-5q0 -33 -1 -49t-6.5 -44t-16 -43t-32.5 -34.5t-53.5 -29t-80 -16.5t-111.5 -7q-47 0 -72.5 1t-62 5.5t-56 13t-42.5 25.5t-34 41.5t-19 61t-8 84.5h178q0 -52 22.5 -66t93.5 -14q69 0 92.5 11t23.5 53
q0 44 -14.5 53t-82.5 12l-41 2q-38 2 -55 3t-47.5 4t-44.5 7t-36 11.5t-32 18t-23.5 26t-19 35.5t-9.5 46t-4 59q0 42 7 74.5t19 54.5t33 37.5t42 24.5t55 13.5t63.5 6t73.5 1.5q32 0 50 -0.5t46.5 -2t44.5 -5t38.5 -10t35.5 -16.5t27.5 -24.5t22 -33.5t12.5 -45t5 -57v-29
h-178q0 27 -5 41.5t-20.5 21.5t-30 8t-48.5 1q-69 0 -88.5 -13.5t-19.5 -46.5q0 -20 4.5 -32t16 -18t22.5 -8t33 -3z" />
    <glyph glyph-name="T" unicode="T" horiz-adv-x="550" 
d="M364 533v-533h-185v533h-178v161h549v-161h-186z" />
    <glyph glyph-name="U" unicode="U" horiz-adv-x="713" 
d="M471 694h185v-463q0 -135 -66.5 -186t-224.5 -51q-83 0 -138.5 9.5t-89 25.5t-51 47.5t-23 65.5t-5.5 89v463h185v-459q0 -23 6 -38.5t14 -24t26.5 -12.5t32.5 -4.5t43 -0.5q64 0 85 15t21 73v451z" />
    <glyph glyph-name="V" unicode="V" horiz-adv-x="658" 
d="M328 159l153 535h191l-202 -694h-289l-196 694h188l150 -535h5z" />
    <glyph glyph-name="W" unicode="W" horiz-adv-x="1021" 
d="M739 159l105 535h186l-154 -694h-267l-95 435h-7l-101 -435h-264l-150 694h187l100 -535h7l130 535h193l124 -535h6z" />
    <glyph glyph-name="X" unicode="X" horiz-adv-x="677" 
d="M678 694l-191 -337l206 -357h-216l-138 267l-136 -267h-218l208 357l-195 337h217l124 -255l126 255h213z" />
    <glyph glyph-name="Y" unicode="Y" horiz-adv-x="655" 
d="M670 694l-254 -451v-243h-185v243l-246 451h212l124 -268h6l128 268h215z" />
    <glyph glyph-name="Z" unicode="Z" horiz-adv-x="610" 
d="M588 694v-156l-332 -372v-5h332v-161h-567v156l328 371v6h-306v161h545z" />
    <glyph glyph-name="bracketleft" unicode="[" horiz-adv-x="356" 
d="M53 699h250v-151h-75v-535h75v-152h-250v838z" />
    <glyph glyph-name="backslash" unicode="\" horiz-adv-x="592" 
d="M68 694h130l326 -694h-130zM394 0h130h-130z" />
    <glyph glyph-name="bracketright" unicode="]" horiz-adv-x="356" 
d="M303 -139h-250v152h75v535h-75v151h250v-838z" />
    <glyph glyph-name="asciicircum" unicode="^" horiz-adv-x="555" 
d="M166 231h-120l176 463h111l176 -463h-121l-110 313h-1z" />
    <glyph glyph-name="underscore" unicode="_" horiz-adv-x="462" 
d="M462 -69v-70h-462v70h462z" />
    <glyph glyph-name="grave" unicode="`" horiz-adv-x="374" 
d="M116 699l188 -111l-26 -57l-209 66z" />
    <glyph glyph-name="a" unicode="a" horiz-adv-x="563" 
d="M266 201q-33 0 -51 -10.5t-18 -40.5q0 -19 6.5 -30.5t19.5 -16t21.5 -5.5t21.5 -1q52 0 69.5 11t17.5 48q0 28 -21 36.5t-66 8.5zM353 0l6 72h-6q-14 -78 -139 -78q-90 0 -133 31.5t-43 119.5q0 85 43 119t133 34q25 0 38.5 -1t36 -5.5t37 -16.5t20.5 -32h7v77
q0 21 -1.5 31.5t-8 22t-22 16t-40.5 4.5q-33 0 -49 -11t-16 -42h-159q0 25 4.5 45t10.5 35t18.5 26t22 18.5t28.5 12.5t31 7.5t35.5 4t35.5 1.5h38q54 0 87.5 -3.5t63.5 -14.5t46 -31.5t25 -54.5t9 -84v-303h-159z" />
    <glyph glyph-name="b" unicode="b" horiz-adv-x="567" 
d="M51 694h159v-278h7q18 44 51.5 59.5t83.5 15.5q100 0 142 -47.5t42 -159.5v-111q0 -94 -46.5 -136.5t-137.5 -42.5q-57 0 -91 19.5t-47 70.5h-8l4 -84h-159v694zM298 117q50 0 64.5 24t14.5 102q0 70 -14 98t-65 28q-52 0 -70 -23.5t-18 -102.5q0 -77 14.5 -101.5
t73.5 -24.5z" />
    <glyph glyph-name="c" unicode="c" horiz-adv-x="515" 
d="M337 194h159q0 -127 -54 -167q-45 -33 -181 -33q-139 0 -185.5 51.5t-46.5 196.5q0 67 8.5 109.5t32.5 76t70.5 48.5t120.5 15q48 0 79 -3t63.5 -13.5t51 -30.5t30 -55t11.5 -86h-159q1 39 -13 52q-15 14 -63 14q-44 0 -58.5 -23t-14.5 -104q0 -83 13.5 -104t59.5 -21
q51 0 63.5 14.5t12.5 62.5z" />
    <glyph glyph-name="d" unicode="d" horiz-adv-x="566" 
d="M516 694v-694h-159l4 84h-8q-13 -51 -47 -70.5t-91 -19.5q-91 0 -137.5 42.5t-46.5 136.5v111q0 112 42 159.5t142 47.5q50 0 83.5 -15.5t51.5 -59.5h7v278h159zM190 242q0 -60 7 -85.5t22 -32.5t52 -7q52 0 69 22.5t17 102.5q0 78 -13.5 102.5t-72.5 24.5
q-56 0 -68.5 -23.5t-12.5 -103.5z" />
    <glyph glyph-name="e" unicode="e" horiz-adv-x="531" 
d="M187 303h156q0 51 -17.5 64t-62.5 13q-44 0 -59.5 -15t-16.5 -62zM346 162h156q0 -103 -65 -139q-51 -29 -172 -29q-140 0 -188.5 54t-48.5 194q0 144 47 196.5t190 52.5q138 0 187.5 -51t49.5 -198v-26h-315q0 -66 15 -88.5t63 -22.5q42 0 61.5 11t19.5 46z" />
    <glyph glyph-name="f" unicode="f" horiz-adv-x="364" 
d="M350 486v-117h-109v-369h-159v369h-64v117h64v47q0 96 51.5 128.5t209.5 32.5v-121q-18 4 -29 4q-51 0 -62 -13t-11 -61v-17h109z" />
    <glyph glyph-name="g" unicode="g" horiz-adv-x="569" 
d="M273 122q55 0 69.5 25.5t14.5 94.5q0 80 -16.5 103.5t-67.5 23.5q-55 0 -68.5 -21t-13.5 -106q0 -75 15 -97.5t67 -22.5zM52 -43h151q0 -38 22 -49q15 -8 49 -8q52 0 67.5 14.5t15.5 64.5v101h-6q-26 -80 -132 -80q-50 0 -85.5 13t-55 32t-30 53t-13.5 65.5t-3 78.5
q0 53 3.5 87.5t14.5 68t31 52t54.5 30t83.5 11.5q57 0 91 -19t47 -72h6l-6 86h159v-465q0 -137 -49 -187t-188 -50q-70 0 -108 5t-67 23.5t-39.5 52t-12.5 92.5z" />
    <glyph glyph-name="h" unicode="h" horiz-adv-x="573" 
d="M212 694v-299h6q16 55 51 75.5t95 20.5q80 0 118 -38.5t38 -116.5v-336h-159v299q0 37 -14 53.5t-52 16.5q-49 0 -66 -25.5t-17 -76.5v-267h-159v694h159z" />
    <glyph glyph-name="i" unicode="i" horiz-adv-x="238" 
d="M199 486v-486h-159v486h159zM199 694v-122h-159v122h159z" />
    <glyph glyph-name="j" unicode="j" horiz-adv-x="224" 
d="M187 486v-492q0 -79 -38 -112t-119 -33q-29 0 -48 6v109q46 0 46 46v476h159zM187 694v-122h-159v122h159z" />
    <glyph glyph-name="k" unicode="k" horiz-adv-x="568" 
d="M210 308h52q40 0 50.5 7t10.5 33q0 49 8.5 78t29.5 43t45.5 18t68.5 4q24 0 44 -6v-90q-20 0 -28 -7t-8 -25q0 -54 -16 -76t-70 -27v-2q56 -1 76 -27t20 -86q0 -46 46 -46v-99q-19 -6 -48 -6q-84 0 -120.5 29t-36.5 112v16q0 27 -12 36.5t-54 9.5h-58v-197h-159v694h159
v-386z" />
    <glyph glyph-name="l" unicode="l" horiz-adv-x="267" 
d="M214 694v-694h-159v694h159z" />
    <glyph glyph-name="m" unicode="m" horiz-adv-x="859" 
d="M54 486h154v-69h7q24 74 133 74q29 0 51 -3.5t44.5 -12.5t35.5 -29t16 -50h7q6 48 45 71.5t90 23.5q86 0 128 -38t42 -121v-332h-160v281q0 19 -0.5 29t-4 23.5t-9.5 20t-18.5 11t-30.5 4.5q-43 0 -58.5 -24.5t-15.5 -68.5v-276h-159v294q0 39 -11 57t-50 18
q-46 0 -61.5 -22.5t-15.5 -70.5v-276h-159v486z" />
    <glyph glyph-name="n" unicode="n" horiz-adv-x="573" 
d="M53 486h159v-91h6q16 55 51 75.5t95 20.5q80 0 118 -38.5t38 -116.5v-336h-159v299q0 37 -14 53.5t-52 16.5q-49 0 -66 -25.5t-17 -76.5v-267h-159v486z" />
    <glyph glyph-name="o" unicode="o" horiz-adv-x="549" 
d="M274 491q79 0 124 -9.5t73 -38.5t37 -74.5t9 -126.5q0 -78 -9.5 -123.5t-37 -75t-73 -39.5t-123.5 -10q-76 0 -122 11t-74 41t-37.5 75t-9.5 121q0 78 9 123.5t36.5 75t73.5 40t124 10.5zM277 369q-57 0 -71.5 -23t-14.5 -104q0 -80 14.5 -102.5t71.5 -22.5q54 0 67.5 22
t13.5 103q0 82 -13.5 104.5t-67.5 22.5z" />
    <glyph glyph-name="p" unicode="p" horiz-adv-x="572" 
d="M51 -210v696h159l-4 -77h8q13 46 47 64t91 18q91 0 137.5 -42.5t46.5 -135.5v-111q0 -112 -42 -160t-142 -48q-50 0 -83.5 16.5t-51.5 62.5h-7v-283h-159zM290 369q-50 0 -65 -24.5t-15 -102.5q0 -69 14.5 -97t65.5 -28t69 23t18 102q0 78 -14 102.5t-73 24.5z" />
    <glyph glyph-name="q" unicode="q" horiz-adv-x="573" 
d="M520 -210h-159v283h-8q-18 -46 -51 -62.5t-84 -16.5q-99 0 -141.5 48.5t-42.5 159.5v111q0 93 46.5 135.5t137.5 42.5q57 0 91.5 -17.5t47.5 -64.5h7l-3 77h159v-696zM273 369q-50 0 -65 -24.5t-15 -102.5q0 -69 14.5 -97t65.5 -28q52 0 70 23t18 102q0 78 -14.5 102.5
t-73.5 24.5z" />
    <glyph glyph-name="r" unicode="r" horiz-adv-x="463" 
d="M310 274v23q0 19 -0.5 26.5t-4 21t-12.5 19t-25 5.5q-59 0 -59 -78v-291h-159v486h154v-72h7q29 77 122 77q32 0 55 -10.5t35.5 -26t19.5 -41.5t8.5 -48t1.5 -53v-38h-143z" />
    <glyph glyph-name="s" unicode="s" horiz-adv-x="535" 
d="M482 348h-150q-2 14 -8 23t-17.5 12t-19 4t-20.5 1q-58 0 -70.5 -7t-12.5 -31q0 -15 3.5 -22t22.5 -13.5t57 -7.5q58 -1 89.5 -4t64.5 -11t48.5 -24t25.5 -42.5t10 -67.5t-13 -71.5t-33.5 -48t-53 -27.5t-64.5 -13.5t-74 -3.5h-37.5t-34.5 1t-34.5 3t-30.5 5.5t-29 9.5
t-23 14.5t-20.5 20t-14 26.5t-10.5 34.5t-3 43.5h159q0 -16 5 -27t11 -16.5t18 -8t20 -3t24 -0.5q55 0 69.5 7.5t14.5 35.5q0 33 -17.5 40.5t-66.5 7.5q-99 0 -151 16.5t-69 45.5t-17 82q0 38 7.5 66t25 45t34.5 27t49.5 14.5t55.5 5.5t65 1q30 0 47.5 -0.5t47 -4t47 -11
t36.5 -20t28 -34t9 -50.5v-23z" />
    <glyph glyph-name="t" unicode="t" horiz-adv-x="449" 
d="M415 486v-117h-184v-217q0 -23 7.5 -32t28.5 -9q20 0 29.5 10.5t10.5 20t2 32.5l1 26h127v-44q0 -96 -39 -129t-140 -33q-35 0 -59 2t-50 10t-41.5 22.5t-25.5 39.5t-10 61v240h-59v117h59v102h159v-102h184z" />
    <glyph glyph-name="u" unicode="u" horiz-adv-x="569" 
d="M513 0h-154l5 93h-7q-29 -99 -145 -99q-165 0 -165 160v332h159v-290q0 -40 11 -59.5t48 -19.5q35 0 62 18t27 52v299h159v-486z" />
    <glyph glyph-name="v" unicode="v" horiz-adv-x="490" 
d="M497 486l-120 -486h-249l-134 486h166l88 -380h5l79 380h165z" />
    <glyph glyph-name="w" unicode="w" horiz-adv-x="775" 
d="M774 486l-85 -486h-228l-69 346h-5l-67 -346h-231l-88 486h153l53 -380h8l80 380h186l80 -380h7l56 380h150z" />
    <glyph glyph-name="x" unicode="x" horiz-adv-x="504" 
d="M497 486l-128 -229l141 -257h-187l-70 160l-67 -160h-192l145 257l-125 229h184l55 -135l59 135h185z" />
    <glyph glyph-name="y" unicode="y" horiz-adv-x="493" 
d="M499 486l-122 -529q-22 -97 -66 -135t-143 -38q-8 0 -17 0.5t-20 1.5t-17 1v112q11 -4 38 -4q16 0 28.5 4.5t19.5 9.5t13.5 18t9.5 20t8.5 26t7.5 27q-50 0 -87 37.5t-54 95.5l-104 353h166l71 -296q5 -21 15.5 -38.5t20.5 -17.5l70 352h162z" />
    <glyph glyph-name="z" unicode="z" horiz-adv-x="459" 
d="M37 486h402v-126l-235 -249h235v-111h-420v131l230 244h-212v111z" />
    <glyph glyph-name="braceleft" unicode="{" horiz-adv-x="356" 
d="M22 224v122q76 0 76 41v189q0 57 36 90t69 33h131v-122h-34q-15 0 -24.5 -3.5t-13 -11.5t-4.5 -14t-1 -18v-158q0 -25 -9.5 -42.5t-25 -26.5t-28 -13t-26.5 -5v-2q17 -2 27 -4.5t27 -11t26 -28.5t9 -50v-158q0 -16 1.5 -24t11.5 -16t30 -8h34v-122h-131q-33 0 -69 33
t-36 90v190q0 50 -76 50z" />
    <glyph glyph-name="bar" unicode="|" horiz-adv-x="555" 
d="M331 694v-694h-106v694h106z" />
    <glyph glyph-name="braceright" unicode="}" horiz-adv-x="356" 
d="M334 346v-122q-76 0 -76 -50v-190q0 -57 -36 -90t-68 -33h-132v122h34q20 0 30 8t11.5 16t1.5 24v158q0 30 9 50t26 28.5t27 11t27 4.5v2q-14 1 -26.5 5t-28 13t-25 26.5t-9.5 42.5v158q0 12 -1 18t-4.5 14t-13 11.5t-24.5 3.5h-34v122h132q32 0 68 -33t36 -90v-189
q0 -41 76 -41z" />
    <glyph glyph-name="asciitilde" unicode="~" horiz-adv-x="555" 
d="M419 332h90q0 -33 -5.5 -64t-18 -60.5t-37 -47.5t-58.5 -18q-25 0 -68 27l-114 74q-29 18 -46 18q-7 0 -11.5 -5t-7 -15.5t-4 -18.5t-2.5 -23t-1 -19h-90q0 34 5.5 65t18 61t37.5 48t61 18q33 0 62 -21l103 -73q32 -24 55 -24q16 0 24.5 25.5t6.5 52.5z" />
    <glyph glyph-name="sterling" unicode="&#xa3;" 
d="M649 463h-181q0 50 -16 66t-59 16q-49 0 -65.5 -16.5t-16.5 -66.5v-73h176v-134h-176q0 -48 -7.5 -68t-36.5 -34v-5h382v-148h-584v148q22 0 35 7t18.5 23.5t6.5 29.5t1 40v7h-83v134h83v100q0 116 56 163t212 47q154 0 204.5 -42t50.5 -161v-33z" />
    <glyph glyph-name="currency" unicode="&#xa4;" 
d="M498 233l75 -75l-67 -63l-75 75q-4 -2 -14.5 -8t-17 -9t-17.5 -7t-24 -5.5t-28 -0.5q-57 2 -96 32l-78 -78l-65 65l75 77q-38 52 -35 111.5t34 88.5l-77 75l67 66l76 -76q42 33 105 30q65 -3 99 -28l77 76l66 -66l-78 -76q2 -4 9 -15.5t11 -20t8.5 -24t4.5 -31.5
q1 -16 -1.5 -30.5t-7.5 -28l-8 -21t-10 -20t-8 -13.5zM244 331q3 -36 28.5 -60.5t59.5 -24.5q44 0 67 28.5t21 56.5q3 35 -22.5 64.5t-65.5 29.5q-39 0 -64.5 -29.5t-23.5 -64.5z" />
    <glyph glyph-name="brokenbar" unicode="&#xa6;" horiz-adv-x="420" 
d="M278 330v-330h-152v330h152zM278 825v-330h-152v330h152z" />
    <glyph glyph-name="section" unicode="&#xa7;" 
d="M250 199l145 -27q30 -6 41 -6q47 0 47 71q0 33 -15.5 46t-73.5 24l-112 21q-48 9 -52 9q-49 0 -49 -68q0 -11 0.5 -19t3 -14.5t4 -11t7 -8.5l7.5 -5.5t10 -4t10.5 -3t13 -2t13.5 -2.5zM610 517v-39h-171q-2 53 -18 64q-18 13 -94 13q-62 0 -80.5 -10t-18.5 -35
q0 -9 1.5 -16l2.5 -11.5t6 -8.5t7 -6t11 -4.5t12 -3t16 -2.5t18 -3l174 -31q51 -9 76.5 -17t48.5 -25.5t31 -47.5t8 -79q0 -30 -1 -44.5t-5.5 -36.5t-16.5 -36.5t-32 -24.5q35 -12 46 -43.5t11 -84.5q0 -45 -6 -74t-24.5 -55.5t-53 -40.5t-91.5 -22.5t-140 -8.5
q-57 0 -93.5 2.5t-71.5 11.5t-55 24.5t-36 41.5t-22 63.5t-6 90.5h172q1 -58 22 -73.5t90 -15.5q82 0 106 11.5t24 43.5q0 34 -17 44.5t-64 18.5l-221 38q-83 14 -107 43.5t-24 113.5q0 27 1.5 43.5t7.5 38.5t20 36t37 20q-22 15 -33 40.5t-12.5 44.5t-1.5 53q0 35 5 59.5
t22 49t47 39.5t82.5 24t127.5 9q47 0 77 -1.5t66.5 -7t58.5 -17.5t42.5 -31.5t29.5 -51t9 -73.5z" />
    <glyph glyph-name="copyright" unicode="&#xa9;" horiz-adv-x="740" 
d="M370 -6q-146 0 -249 103.5t-103 249.5t103 249t249 103t249 -103t103 -249t-103 -249.5t-249 -103.5zM370 75q112 0 192 79.5t80 192.5t-80 192.5t-192 79.5q-114 0 -193 -79.5t-79 -192.5t79 -192.5t193 -79.5zM475 280h82q-7 -65 -56 -104t-116 -39q-91 0 -147.5 60.5
t-56.5 152.5q0 94 54.5 153.5t147.5 59.5q68 0 115.5 -37t58.5 -102h-82q-7 33 -32.5 53t-60.5 20q-57 0 -88.5 -43t-31.5 -103q0 -56 34 -102t89 -46q34 0 61 22t29 55z" />
    <glyph glyph-name="guillemotleft" unicode="&#xab;" horiz-adv-x="514" 
d="M161 476l104 -56l-88 -168l88 -157l-99 -61l-123 218zM367 476l105 -56l-89 -168l89 -157l-99 -61l-124 218z" />
    <glyph glyph-name="logicalnot" unicode="&#xac;" horiz-adv-x="555" 
d="M402 145v164h-356v106h463v-270h-107z" />
    <glyph glyph-name="registered" unicode="&#xae;" horiz-adv-x="740" 
d="M370 -6q-146 0 -249 103.5t-103 249.5t103 249t249 103t249 -103t103 -249t-103 -249.5t-249 -103.5zM370 75q112 0 192 79.5t80 192.5t-80 192.5t-192 79.5q-114 0 -193 -79.5t-79 -192.5t79 -192.5t193 -79.5zM453 314l93 -160h-91l-85 156h-71v-156h-81v381h191
q75 0 111.5 -23.5t36.5 -93.5q0 -51 -26 -75.5t-78 -28.5zM299 371h112q34 0 49.5 11.5t15.5 45.5q0 16 -7 26.5t-22.5 14t-26 4.5t-29.5 1h-92v-103z" />
    <glyph glyph-name="degree" unicode="&#xb0;" horiz-adv-x="370" 
d="M324 561q0 -58 -41 -98.5t-98 -40.5q-58 0 -98 40.5t-41 98.5q0 57 41 97.5t98 40.5t98 -41t41 -97zM260 561q0 30 -22.5 52t-53.5 22t-52.5 -22t-21.5 -52q1 -32 22.5 -53.5t52.5 -21.5t53 22t22 53z" />
    <glyph glyph-name="plusminus" unicode="&#xb1;" horiz-adv-x="555" 
d="M224 486h106v-110h179v-106h-179v-114h-106v114h-178v106h178v110zM46 0v106h463v-106h-463z" />
    <glyph glyph-name="mu" unicode="&#xb5;" horiz-adv-x="569" 
d="M516 0h-154l5 93h-7q-29 -99 -151 -99v-204h-159v696h159v-290q0 -39 11 -59t47 -20t63 18t27 52v299h159v-486z" />
    <glyph glyph-name="mu" unicode="&#x3bc;" horiz-adv-x="569" 
d="M516 0h-154l5 93h-7q-29 -99 -151 -99v-204h-159v696h159v-290q0 -39 11 -59t47 -20t63 18t27 52v299h159v-486z" />
    <glyph glyph-name="paragraph" unicode="&#xb6;" 
d="M660 -210h-111v770h-72v-770h-111v390h-120q-78 0 -124.5 11t-74.5 42.5t-37.5 78t-9.5 126.5q0 138 54.5 197t182.5 59h423v-904zM366 314v246h-92q-37 0 -57.5 -5t-31 -22t-12.5 -35.5t-2 -59.5q0 -80 16.5 -102t87.5 -22h91zM366 -210h111h-111z" />
    <glyph glyph-name="periodcentered" unicode="&#xb7;" horiz-adv-x="308" 
d="M241 281h-166v168h166v-168z" />
    <glyph glyph-name="periodcentered" unicode="&#x2219;" horiz-adv-x="308" 
d="M241 281h-166v168h166v-168z" />
    <glyph glyph-name="guillemotright" unicode="&#xbb;" horiz-adv-x="514" 
d="M347 34l-105 57l89 168l-89 156l99 61l124 -217zM141 34l-105 57l89 168l-89 156l99 61l124 -217z" />
    <glyph glyph-name="divide" unicode="&#xf7;" horiz-adv-x="555" 
d="M46 203v106h463v-106h-463zM330 26h-106v106h106v-106zM330 379h-106v107h106v-107z" />
    <glyph glyph-name="florin" unicode="&#x192;" 
d="M551 452l-20 -116h-94l-64 -361q-7 -39 -11.5 -62t-14.5 -46t-17 -34.5t-26 -22.5t-34 -15t-50 -7t-64 -3.5t-85 -0.5l21 122q38 -5 47 -5q36 0 48.5 19t19.5 61l63 355h-70l20 116h70l10 55q21 117 58 153q35 33 127 38q31 1 110 1l-21 -121q-20 5 -37 5q-35 0 -49 -15
t-23 -67l-8 -49h94z" />
    <glyph glyph-name="Delta" unicode="&#x394;" horiz-adv-x="714" 
d="M703 0h-695l371 722zM489 101l-150 328l-169 -328h319z" />
    <glyph glyph-name="Delta" unicode="&#x2206;" horiz-adv-x="714" 
d="M703 0h-695l371 722zM489 101l-150 328l-169 -328h319z" />
    <glyph glyph-name="afii10023" unicode="&#x401;" horiz-adv-x="627" 
d="M244 542v-127h296v-128h-296v-135h322v-152h-507v694h501v-152h-316zM275 884v-96h-101v96h101zM469 884v-96h-100v96h100z" />
    <glyph glyph-name="afii10051" unicode="&#x402;" horiz-adv-x="728" 
d="M407 0q64 0 85 15t21 73v201q0 37 -14 53.5t-52 16.5q-49 0 -66 -25.5t-17 -76.5v-257h-185v533h-178v161h549v-161h-186v-138h6q16 54 55 75t101 21q82 0 127 -39t45 -116v-260q0 -135 -66.5 -186t-224.5 -51v161z" />
    <glyph glyph-name="afii10052" unicode="&#x403;" horiz-adv-x="570" 
d="M236 542v-542h-185v694h492v-152h-307zM469 822l-209 -66l-26 57l189 111z" />
    <glyph glyph-name="afii10053" unicode="&#x404;" horiz-adv-x="673" 
d="M643 242q0 -49 -2.5 -75.5t-17 -62t-44.5 -59.5q-29 -24 -70 -36t-68 -13.5t-82 -1.5q-48 0 -78 1t-68.5 6.5t-62 16t-48.5 29.5t-38.5 47t-22.5 69t-9 94v180q0 67 15 115t40.5 76.5t69 44.5t89.5 21t113 5q64 0 103 -3.5t77.5 -16.5t58.5 -37.5t32 -66t12 -103.5v-27
h-191v27q-2 22 -10.5 36t-25 20.5t-33 8t-43.5 1.5q-74 0 -95 -25t-21 -98h182v-128h-182q0 -77 20 -104.5t96 -27.5q64 0 88.5 15t24.5 72v21h191v-21z" />
    <glyph glyph-name="afii10054" unicode="&#x405;" horiz-adv-x="662" 
d="M296 427l77 -5q82 -5 127.5 -14t76.5 -31.5t41.5 -58t10.5 -96.5v-5q0 -33 -1 -49t-6.5 -44t-16 -43t-32.5 -34.5t-53.5 -29t-80 -16.5t-111.5 -7q-47 0 -72.5 1t-62 5.5t-56 13t-42.5 25.5t-34 41.5t-19 61t-8 84.5h178q0 -52 22.5 -66t93.5 -14q69 0 92.5 11t23.5 53
q0 44 -14.5 53t-82.5 12l-41 2q-38 2 -55 3t-47.5 4t-44.5 7t-36 11.5t-32 18t-23.5 26t-19 35.5t-9.5 46t-4 59q0 42 7 74.5t19 54.5t33 37.5t42 24.5t55 13.5t63.5 6t73.5 1.5q32 0 50 -0.5t46.5 -2t44.5 -5t38.5 -10t35.5 -16.5t27.5 -24.5t22 -33.5t12.5 -45t5 -57v-29
h-178q0 27 -5 41.5t-20.5 21.5t-30 8t-48.5 1q-69 0 -88.5 -13.5t-19.5 -46.5q0 -20 4.5 -32t16 -18t22.5 -8t33 -3z" />
    <glyph glyph-name="afii10055" unicode="&#x406;" horiz-adv-x="300" 
d="M242 694v-694h-185v694h185z" />
    <glyph glyph-name="afii10056" unicode="&#x407;" horiz-adv-x="300" 
d="M242 694v-694h-185v694h185zM98 884v-96h-101v96h101zM292 884v-96h-100v96h100z" />
    <glyph glyph-name="afii10057" unicode="&#x408;" horiz-adv-x="557" 
d="M317 694h185v-480q0 -71 -11 -113t-41.5 -66.5t-75 -32.5t-121.5 -8q-144 0 -188.5 46.5t-44.5 192.5v57h176v-57q0 -45 10.5 -61.5t46.5 -16.5q41 0 52.5 12t11.5 47v480z" />
    <glyph glyph-name="afii10058" unicode="&#x409;" horiz-adv-x="1045" 
d="M651 272v-127h93q47 0 66 14t19 56q0 35 -17 46t-64 11h-97zM466 0v533h-170v-359q0 -73 -35.5 -123.5t-101.5 -50.5h-122v128h9q65 0 65 74v492h540v-261h143q44 0 72.5 -3t59.5 -15.5t48 -35t28.5 -63.5t11.5 -100q0 -71 -13.5 -114.5t-45.5 -65.5t-69 -29t-98 -7h-322
z" />
    <glyph glyph-name="afii10059" unicode="&#x40a;" horiz-adv-x="1045" 
d="M651 433h143q44 0 72.5 -3t59.5 -15.5t48 -35t28.5 -63.5t11.5 -100q0 -71 -13.5 -114.5t-45.5 -65.5t-69 -29t-98 -7h-322v272h-222v-272h-185v694h185v-261h222v261h185v-261zM829 215q0 35 -17 46t-64 11h-97v-127h93q47 0 66 14t19 56z" />
    <glyph glyph-name="afii10060" unicode="&#x40b;" horiz-adv-x="728" 
d="M364 0h-185v533h-178v161h549v-161h-186v-138h6q16 54 55 75t101 21q82 0 127 -39t45 -116v-336h-185v289q0 37 -14 53.5t-52 16.5q-49 0 -66 -25.5t-17 -76.5v-257z" />
    <glyph glyph-name="afii10061" unicode="&#x40c;" horiz-adv-x="729" 
d="M686 0h-122q-107 0 -107 104v81q0 87 -76 87h-137v-272h-185v694h185v-261h129q80 0 80 87v70q0 104 107 104h118v-118h-4q-12 0 -17 -0.5t-11.5 -4.5t-9 -13.5t-2.5 -25.5v-55q0 -116 -117 -121v-3q58 -2 91.5 -34.5t33.5 -90.5v-66q0 -17 2.5 -26.5t10.5 -13t12 -4
t19 -0.5v-118zM509 822l-209 -66l-26 57l189 111z" />
    <glyph glyph-name="afii10062" unicode="&#x40e;" horiz-adv-x="677" 
d="M485 694h208l-288 -643q-23 -51 -98 -51h-142v118h42q20 0 26 15l3 8l-247 553h208l143 -370h2zM512 881q0 -22 -3 -39t-11.5 -28.5t-15.5 -20t-22.5 -13.5l-24.5 -8t-30.5 -4.5t-31 -1.5h-34.5h-34.5t-30.5 1.5t-30 4.5l-25 8t-23 13.5t-15.5 20t-11.5 29t-3 38.5h116
q0 -11 3.5 -19t8 -11.5t13.5 -5.5t14.5 -2.5t17.5 -0.5q19 0 28.5 1.5t19 10.5t9.5 27h116z" />
    <glyph glyph-name="afii10145" unicode="&#x40f;" horiz-adv-x="729" 
d="M273 0h-214v694h185v-533h242v533h185v-694h-213v-193h-185v193z" />
    <glyph glyph-name="afii10017" unicode="&#x410;" horiz-adv-x="678" 
d="M464 119h-248l-35 -119h-192l208 694h281l211 -694h-189zM427 254l-86 301h-2l-84 -301h172z" />
    <glyph glyph-name="afii10018" unicode="&#x411;" horiz-adv-x="683" 
d="M240 288v-136h140q47 0 66 14.5t19 55.5t-17 53.5t-64 12.5h-144zM650 216q0 -59 -10 -99t-26.5 -63.5t-47.5 -35.5t-61.5 -15t-80.5 -3h-369v694h525v-152h-340v-116h190q41 0 68 -3t58.5 -15t50 -33.5t31 -61.5t12.5 -97z" />
    <glyph glyph-name="afii10019" unicode="&#x412;" horiz-adv-x="683" 
d="M55 0v694h365q114 0 166.5 -35.5t52.5 -142.5q0 -73 -22 -111t-87 -49v-7q72 -5 96 -43.5t24 -112.5q0 -50 -10 -85t-27 -56t-46.5 -33t-62 -15.5t-80.5 -3.5h-369zM240 542v-126h134q49 0 64.5 13t15.5 54q0 33 -10.5 46t-47.5 13h-156zM240 288v-136h140q47 0 66 14.5
t19 55.5t-17 53.5t-64 12.5h-144z" />
    <glyph glyph-name="afii10020" unicode="&#x413;" horiz-adv-x="570" 
d="M236 542v-542h-185v694h492v-152h-307z" />
    <glyph glyph-name="afii10021" unicode="&#x414;" horiz-adv-x="729" 
d="M737 -183h-185v183h-374v-183h-185v344h46q26 24 37 37.5t28.5 47t25 85.5t7.5 127v236h534v-533h66v-344zM486 161v372h-164v-75q0 -95 -13.5 -160t-27.5 -90t-36 -47h241z" />
    <glyph glyph-name="afii10022" unicode="&#x415;" horiz-adv-x="627" 
d="M244 542v-127h296v-128h-296v-135h322v-152h-507v694h501v-152h-316z" />
    <glyph glyph-name="afii10024" unicode="&#x416;" horiz-adv-x="1062" 
d="M438 694h185v-261h89q80 0 80 87v70q0 104 107 104h118v-118h-4q-12 0 -17 -0.5t-11.5 -4.5t-9 -13.5t-2.5 -25.5v-55q0 -116 -117 -121v-3q58 -2 91.5 -34.5t33.5 -90.5v-66q0 -17 2.5 -26.5t10.5 -13t12 -4t19 -0.5v-118h-122q-107 0 -107 104v81q0 87 -76 87h-97v-272
h-185v272h-97q-76 0 -76 -87v-81q0 -104 -107 -104h-122v118h4q12 0 17 0.5t11.5 4.5t9 13.5t2.5 25.5v66q0 58 33.5 90.5t91.5 34.5v3q-117 5 -117 121v55q0 17 -2.5 26.5t-10.5 13t-12 4t-19 0.5v118h118q107 0 107 -104v-70q0 -87 80 -87h89v261z" />
    <glyph glyph-name="afii10025" unicode="&#x417;" 
d="M288 288v134h44q66 0 81.5 10t15.5 46q0 48 -15.5 62.5t-81.5 14.5q-31 0 -44.5 -1.5t-28.5 -9t-20 -24t-5 -45.5v-14h-176v24q0 42 6.5 74t18 55t31.5 38.5t40.5 24.5t52.5 14t61 6.5t72 1.5q34 0 59 -1.5t59 -7t57.5 -18.5t45.5 -32.5t33 -52t11 -75.5
q0 -142 -106 -156v-7q114 -5 114 -149q0 -65 -19.5 -107.5t-59.5 -63.5t-84 -28t-110 -7q-57 0 -93 3t-77 15t-64.5 34t-39 62t-15.5 98v37h176v-23q0 -53 24 -67t81 -14q63 0 84.5 13.5t21.5 70.5q0 38 -18.5 51.5t-87.5 13.5h-44z" />
    <glyph glyph-name="afii10026" unicode="&#x418;" horiz-adv-x="729" 
d="M671 694v-694h-185l15 427h-2l-255 -427h-185v694h185l-15 -426h2l255 426h185z" />
    <glyph glyph-name="afii10027" unicode="&#x419;" horiz-adv-x="729" 
d="M536 881q0 -22 -3 -39t-11.5 -28.5t-15.5 -20t-22.5 -13.5l-24.5 -8t-30.5 -4.5t-31 -1.5h-34.5h-34.5t-30.5 1.5t-30 4.5l-25 8t-23 13.5t-15.5 20t-11.5 29t-3 38.5h116q0 -11 3.5 -19t8 -11.5t13.5 -5.5t14.5 -2.5t17.5 -0.5q19 0 28.5 1.5t19 10.5t9.5 27h116zM671 0
h-185l15 427h-3l-254 -427h-185v694h185l-15 -426h3l254 426h185v-694z" />
    <glyph glyph-name="afii10028" unicode="&#x41a;" horiz-adv-x="729" 
d="M686 0h-122q-107 0 -107 104v81q0 87 -76 87h-137v-272h-185v694h185v-261h129q80 0 80 87v70q0 104 107 104h118v-118h-4q-12 0 -17 -0.5t-11.5 -4.5t-9 -13.5t-2.5 -25.5v-55q0 -116 -117 -121v-3q58 -2 91.5 -34.5t33.5 -90.5v-66q0 -17 2.5 -26.5t10.5 -13t12 -4
t19 -0.5v-118z" />
    <glyph glyph-name="afii10029" unicode="&#x41b;" horiz-adv-x="729" 
d="M296 174q0 -73 -35.5 -123.5t-101.5 -50.5h-122v128h9q65 0 65 74v492h560v-694h-185v533h-190v-359z" />
    <glyph glyph-name="afii10030" unicode="&#x41c;" horiz-adv-x="970" 
d="M223 532l18 -532h-185v694h294l132 -436h6l126 436h301v-694h-185l18 532h-6l-176 -532h-160l-178 532h-5z" />
    <glyph glyph-name="afii10031" unicode="&#x41d;" horiz-adv-x="729" 
d="M671 694v-694h-185v272h-242v-272h-185v694h185v-261h242v261h185z" />
    <glyph glyph-name="afii10032" unicode="&#x41e;" horiz-adv-x="703" 
d="M351 -6q-60 0 -105.5 6t-87.5 22.5t-68.5 44.5t-42.5 73.5t-16 108.5v196q0 78 22.5 129.5t68.5 78t99.5 36.5t129.5 10q77 0 130.5 -10t99.5 -36.5t68.5 -78t22.5 -129.5v-196q0 -63 -16 -108.5t-42.5 -73.5t-69 -44.5t-87.5 -22.5t-106 -6zM351 155q78 0 104.5 20
t26.5 94v156q0 73 -26.5 93t-104.5 20q-77 0 -103.5 -20t-26.5 -93v-156q0 -74 26.5 -94t103.5 -20z" />
    <glyph glyph-name="afii10033" unicode="&#x41f;" horiz-adv-x="729" 
d="M244 0h-185v694h612v-694h-185v533h-242v-533z" />
    <glyph glyph-name="afii10034" unicode="&#x420;" horiz-adv-x="658" 
d="M239 0h-185v694h348q128 0 182.5 -59t54.5 -196q0 -77 -9.5 -124t-36.5 -79t-72 -45t-119 -13h-163v-178zM239 339h126q55 0 69.5 17t14.5 83q0 56 -15.5 75t-68.5 19h-126v-194z" />
    <glyph glyph-name="afii10035" unicode="&#x421;" horiz-adv-x="673" 
d="M643 242q0 -49 -2.5 -75.5t-17 -62t-44.5 -59.5q-29 -24 -70 -36t-68 -13.5t-82 -1.5q-48 0 -78 1t-68.5 6.5t-62 16t-48.5 29.5t-38.5 47t-22.5 69t-9 94v180q0 67 15 115t40.5 76.5t69 44.5t89.5 21t113 5q64 0 103 -3.5t77.5 -16.5t58.5 -37.5t32 -66t12 -103.5v-27
h-191v27q-2 22 -10.5 36t-25 20.5t-33 8t-43.5 1.5q-76 0 -96 -26t-20 -105v-108q0 -36 1.5 -55.5t7.5 -39.5t18.5 -29t34 -14.5t54.5 -5.5q64 0 88.5 15t24.5 72v21h191v-21z" />
    <glyph glyph-name="afii10036" unicode="&#x422;" horiz-adv-x="550" 
d="M364 533v-533h-185v533h-178v161h549v-161h-186z" />
    <glyph glyph-name="afii10037" unicode="&#x423;" horiz-adv-x="677" 
d="M485 694h208l-288 -643q-23 -51 -98 -51h-142v118h42q20 0 26 15l3 8l-247 553h208l143 -370h2z" />
    <glyph glyph-name="afii10038" unicode="&#x424;" horiz-adv-x="904" 
d="M869 314q0 -147 -48 -201t-189 -54h-88v-59h-185v59h-88q-141 0 -189 54t-48 201v73q0 133 55 190.5t182 57.5h88v59h185v-59h88q127 0 182 -57.5t55 -190.5v-73zM679 314v73q0 51 -16 69t-68 18h-51v-254h51q54 0 69 16.5t15 77.5zM359 220v254h-51q-52 0 -68 -18
t-16 -69v-73q0 -61 15 -77.5t69 -16.5h51z" />
    <glyph glyph-name="afii10039" unicode="&#x425;" horiz-adv-x="677" 
d="M678 694l-191 -337l206 -357h-216l-138 267l-136 -267h-218l208 357l-195 337h217l124 -255l126 255h213z" />
    <glyph glyph-name="afii10040" unicode="&#x426;" horiz-adv-x="729" 
d="M552 0h-493v694h185v-533h242v533h185v-533h66v-344h-185v183z" />
    <glyph glyph-name="afii10041" unicode="&#x427;" horiz-adv-x="678" 
d="M39 694h185v-221q0 -23 6 -38.5t14 -24t26.5 -12.5t32.5 -4.5t43 -0.5h89v301h185v-694h-185v232h-89q-83 0 -138.5 9.5t-89 25.5t-51 47.5t-23 65.5t-5.5 89v225z" />
    <glyph glyph-name="afii10042" unicode="&#x428;" horiz-adv-x="1116" 
d="M651 161h222v533h185v-694h-999v694h185v-533h222v533h185v-533z" />
    <glyph glyph-name="afii10043" unicode="&#x429;" horiz-adv-x="1116" 
d="M1058 161h66v-344h-185v183h-880v694h185v-533h222v533h185v-533h222v533h185v-533z" />
    <glyph glyph-name="afii10044" unicode="&#x42a;" horiz-adv-x="778" 
d="M359 288v-136h123q48 0 66.5 13t18.5 57q0 41 -17 53.5t-64 12.5h-127zM359 694v-254h173q44 0 72.5 -3t59.5 -16t48 -36.5t28.5 -65.5t11.5 -103q0 -59 -10 -99t-26.5 -63.5t-47.5 -35.5t-61.5 -15t-80.5 -3h-352v533h-173v161h358z" />
    <glyph glyph-name="afii10045" unicode="&#x42b;" horiz-adv-x="939" 
d="M239 288v-136h123q48 0 66.5 13t18.5 57q0 41 -17 53.5t-64 12.5h-127zM239 440h173q44 0 72.5 -3t59.5 -16t48 -36.5t28.5 -65.5t11.5 -103q0 -59 -10 -99t-26.5 -63.5t-47.5 -35.5t-61.5 -15t-80.5 -3h-352v694h185v-254zM696 694h185v-694h-185v694z" />
    <glyph glyph-name="afii10046" unicode="&#x42c;" horiz-adv-x="658" 
d="M239 288v-136h123q48 0 66.5 13t18.5 57q0 41 -17 53.5t-64 12.5h-127zM239 440h173q44 0 72.5 -3t59.5 -16t48 -36.5t28.5 -65.5t11.5 -103q0 -59 -10 -99t-26.5 -63.5t-47.5 -35.5t-61.5 -15t-80.5 -3h-352v694h185v-254z" />
    <glyph glyph-name="afii10047" unicode="&#x42d;" horiz-adv-x="673" 
d="M647 257q0 -53 -9 -94t-22.5 -69t-38.5 -47t-48.5 -29.5t-62 -16t-68.5 -6.5t-78 -1q-55 0 -82 1.5t-68 13.5t-70 36q-30 24 -44.5 59.5t-17 62t-2.5 75.5v21h191v-21q0 -57 24.5 -72t88.5 -15q76 0 96 27.5t20 104.5h-182v128h182q0 73 -21 98t-95 25q-27 0 -43.5 -1.5
t-33 -8t-25 -20.5t-10.5 -36v-27h-191v27q0 62 12 103.5t32 66t58.5 37.5t77.5 16.5t103 3.5q67 0 113 -5t89.5 -21t69 -44.5t40.5 -76.5t15 -115v-180z" />
    <glyph glyph-name="afii10048" unicode="&#x42e;" horiz-adv-x="1003" 
d="M651 155q78 0 104.5 20t26.5 94v156q0 73 -26.5 93t-104.5 20q-77 0 -103.5 -20t-26.5 -93v-156q0 -74 26.5 -94t103.5 -20zM331 272h-87v-272h-185v694h185v-261h87v12q0 78 22.5 129.5t68.5 78t99.5 36.5t129.5 10q77 0 130.5 -10t99.5 -36.5t68.5 -78t22.5 -129.5
v-196q0 -63 -16 -108.5t-42.5 -73.5t-69 -44.5t-87.5 -22.5t-106 -6q-60 0 -105.5 6t-87.5 22.5t-68.5 44.5t-42.5 73.5t-16 108.5v23z" />
    <glyph glyph-name="afii10049" unicode="&#x42f;" horiz-adv-x="710" 
d="M466 397v145h-143q-38 0 -48 -14t-10 -62q0 -47 14.5 -58t65.5 -11h121zM265 175v-71q0 -104 -107 -104h-122v118h4q12 0 17 0.5t11.5 4.5t9 13.5t2.5 25.5v48q0 58 30.5 90.5t87.5 34.5v3q-67 7 -92.5 46t-25.5 119q0 114 52.5 152.5t166.5 38.5h352v-694h-185v262h-124
q-77 0 -77 -87z" />
    <glyph glyph-name="afii10065" unicode="&#x430;" horiz-adv-x="563" 
d="M266 201q-33 0 -51 -10.5t-18 -40.5q0 -19 6.5 -30.5t19.5 -16t21.5 -5.5t21.5 -1q52 0 69.5 11t17.5 48q0 28 -21 36.5t-66 8.5zM353 0l6 72h-6q-14 -78 -139 -78q-90 0 -133 31.5t-43 119.5q0 85 43 119t133 34q25 0 38.5 -1t36 -5.5t37 -16.5t20.5 -32h7v77
q0 21 -1.5 31.5t-8 22t-22 16t-40.5 4.5q-33 0 -49 -11t-16 -42h-159q0 25 4.5 45t10.5 35t18.5 26t22 18.5t28.5 12.5t31 7.5t35.5 4t35.5 1.5h38q54 0 87.5 -3.5t63.5 -14.5t46 -31.5t25 -54.5t9 -84v-303h-159z" />
    <glyph glyph-name="afii10066" unicode="&#x431;" horiz-adv-x="549" 
d="M517 242q0 -78 -9.5 -123.5t-37 -75t-73 -39.5t-123.5 -10q-76 0 -122 11t-74 41t-37.5 75t-9.5 121v226q0 42 5 72t18 51t29.5 34t45 20t58.5 9t75 2q33 0 48.5 8t15.5 30h160q0 -43 -12.5 -71t-38 -41t-52.5 -18t-67 -5h-54q-26 0 -41.5 -4.5t-22 -17t-7.5 -22
t-1 -30.5v-31h5q19 32 99 32q93 0 138.5 -19t65 -70t19.5 -155zM358 242q0 82 -13.5 104.5t-67.5 22.5q-57 0 -71.5 -23t-14.5 -104q0 -80 14.5 -102.5t71.5 -22.5q54 0 67.5 22t13.5 103z" />
    <glyph glyph-name="afii10067" unicode="&#x432;" horiz-adv-x="549" 
d="M519 147q0 -48 -13 -78.5t-42 -45t-60 -19t-82 -4.5h-269v486h243q42 0 68.5 -1.5t56 -8.5t46 -19.5t27.5 -36t11 -56.5q0 -100 -88 -108v-3q102 -3 102 -106zM343 340q0 27 -12.5 35t-48.5 8h-70v-91h70q39 0 50 9.5t11 38.5zM356 154q0 29 -14.5 40t-49.5 11h-80v-102
h78q34 0 50 10t16 41z" />
    <glyph glyph-name="afii10068" unicode="&#x433;" horiz-adv-x="440" 
d="M428 375h-216v-375h-159v486h375v-111z" />
    <glyph glyph-name="afii10069" unicode="&#x434;" horiz-adv-x="573" 
d="M570 -164h-152v164h-264v-164h-152v275h50q58 74 58 256v119h407v-375h53v-275zM358 111v264h-89v-8q0 -170 -49 -256h138z" />
    <glyph glyph-name="afii10070" unicode="&#x435;" horiz-adv-x="531" 
d="M187 303h156q0 51 -17.5 64t-62.5 13q-44 0 -59.5 -15t-16.5 -62zM346 162h156q0 -103 -65 -139q-51 -29 -172 -29q-140 0 -188.5 54t-48.5 194q0 144 47 196.5t190 52.5q138 0 187.5 -51t49.5 -198v-26h-315q0 -66 15 -88.5t63 -22.5q42 0 61.5 11t19.5 46z" />
    <glyph glyph-name="afii10072" unicode="&#x436;" horiz-adv-x="827" 
d="M333 197h-33q-42 0 -54 -9.5t-12 -36.5v-16q0 -83 -36.5 -112t-120.5 -29q-29 0 -48 6v99q46 0 46 46q0 60 20 86t76 27v2q-54 5 -70 27t-16 76q0 18 -8 25t-28 7v90q20 6 44 6q85 0 118.5 -24.5t33.5 -108.5q0 -27 14 -38.5t52 -11.5h22v178h159v-178h22q38 0 52 11.5
t14 38.5q0 84 33.5 108.5t118.5 24.5q24 0 44 -6v-90q-20 0 -28 -7t-8 -25q0 -54 -16 -76t-70 -27v-2q56 -1 76 -27t20 -86q0 -46 46 -46v-99q-19 -6 -48 -6q-84 0 -120.5 29t-36.5 112v16q0 27 -12 36.5t-54 9.5h-33v-197h-159v197z" />
    <glyph glyph-name="afii10073" unicode="&#x437;" horiz-adv-x="515" 
d="M484 141q0 -89 -55.5 -118t-181.5 -29q-40 0 -68 2t-59 11t-49 24.5t-30.5 44t-12.5 68.5v26h155l1 -15q3 -38 18 -48t53 -10q45 0 55.5 9t10.5 50q0 27 -12 36.5t-54 9.5h-20v94h20q39 0 50 7t11 33q0 32 -9.5 42t-51.5 10q-21 0 -29.5 -1t-18.5 -6t-13 -16.5t-3 -32.5
l-2 -9h-157v18q0 50 13.5 81t45 45.5t65.5 19t91 4.5q42 0 69 -1.5t61 -9t53.5 -20.5t33.5 -39t14 -62q0 -100 -96 -109v-3q102 -3 102 -106z" />
    <glyph glyph-name="afii10074" unicode="&#x438;" horiz-adv-x="573" 
d="M361 486h159v-486h-159l6 281h-3l-152 -281h-159v486h159l-6 -281h3z" />
    <glyph glyph-name="afii10075" unicode="&#x439;" horiz-adv-x="573" 
d="M361 486h159v-486h-159l6 281h-3l-152 -281h-159v486h159l-6 -281h3zM446 698q0 -22 -5 -38.5t-11 -27.5t-20 -18.5t-23 -11t-30.5 -5.5t-31.5 -2h-35h-35t-31 2t-30.5 5.5t-23.5 11t-20 18t-11 27.5t-5 39h105q0 -16 8.5 -24.5t17 -9.5t25.5 -1t25.5 1t17 9.5t8.5 24.5
h105z" />
    <glyph glyph-name="afii10076" unicode="&#x43a;" horiz-adv-x="573" 
d="M541 0q-19 -6 -48 -6q-84 0 -120.5 29t-36.5 112v16q0 27 -12 36.5t-54 9.5h-58v-197h-159v486h159v-178h47q38 0 52 11.5t14 38.5q0 84 33.5 108.5t118.5 24.5q24 0 44 -6v-90q-20 0 -28 -7t-8 -25q0 -54 -16 -76t-70 -27v-2q56 -1 76 -27t20 -86q0 -46 46 -46v-99z" />
    <glyph glyph-name="afii10077" unicode="&#x43b;" horiz-adv-x="573" 
d="M237 139q0 -79 -38 -112t-119 -33q-42 0 -61 6v109h13q46 0 46 46v331h442v-486h-159v375h-124v-236z" />
    <glyph glyph-name="afii10078" unicode="&#x43c;" horiz-adv-x="767" 
d="M307 486l78 -346h3l80 346h247v-486h-154v380h-3l-100 -380h-146l-100 380h-3v-380h-154v486h252z" />
    <glyph glyph-name="afii10079" unicode="&#x43d;" horiz-adv-x="573" 
d="M361 305v181h159v-486h-159v194h-149v-194h-159v486h159v-181h149z" />
    <glyph glyph-name="afii10080" unicode="&#x43e;" horiz-adv-x="549" 
d="M274 491q79 0 124 -9.5t73 -38.5t37 -74.5t9 -126.5q0 -78 -9.5 -123.5t-37 -75t-73 -39.5t-123.5 -10q-76 0 -122 11t-74 41t-37.5 75t-9.5 121q0 78 9 123.5t36.5 75t73.5 40t124 10.5zM277 369q-57 0 -71.5 -23t-14.5 -104q0 -80 14.5 -102.5t71.5 -22.5q54 0 67.5 22
t13.5 103q0 82 -13.5 104.5t-67.5 22.5z" />
    <glyph glyph-name="afii10081" unicode="&#x43f;" horiz-adv-x="573" 
d="M361 375h-149v-375h-159v486h467v-486h-159v375z" />
    <glyph glyph-name="afii10082" unicode="&#x440;" horiz-adv-x="572" 
d="M51 -210v696h159l-4 -77h8q13 46 47 64t91 18q91 0 137.5 -42.5t46.5 -135.5v-111q0 -112 -42 -160t-142 -48q-50 0 -83.5 16.5t-51.5 62.5h-7v-283h-159zM290 369q-50 0 -65 -24.5t-15 -102.5q0 -69 14.5 -97t65.5 -28t69 23t18 102q0 78 -14 102.5t-73 24.5z" />
    <glyph glyph-name="afii10083" unicode="&#x441;" horiz-adv-x="515" 
d="M337 194h159q0 -127 -54 -167q-45 -33 -181 -33q-139 0 -185.5 51.5t-46.5 196.5q0 67 8.5 109.5t32.5 76t70.5 48.5t120.5 15q48 0 79 -3t63.5 -13.5t51 -30.5t30 -55t11.5 -86h-159q1 39 -13 52q-15 14 -63 14q-44 0 -58.5 -23t-14.5 -104q0 -83 13.5 -104t59.5 -21
q51 0 63.5 14.5t12.5 62.5z" />
    <glyph glyph-name="afii10084" unicode="&#x442;" horiz-adv-x="500" 
d="M486 375h-155v-375h-159v375h-155v111h469v-111z" />
    <glyph glyph-name="afii10085" unicode="&#x443;" horiz-adv-x="493" 
d="M499 486l-122 -529q-22 -97 -66 -135t-143 -38q-8 0 -17 0.5t-20 1.5t-17 1v112q11 -4 38 -4q16 0 28.5 4.5t19.5 9.5t13.5 18t9.5 20t8.5 26t7.5 27q-50 0 -87 37.5t-54 95.5l-104 353h166l71 -296q5 -21 15.5 -38.5t20.5 -17.5l70 352h162z" />
    <glyph glyph-name="afii10086" unicode="&#x444;" horiz-adv-x="790" 
d="M757 207q0 -112 -37 -162.5t-123 -50.5q-101 0 -119 54h-3v-258h-159v258h-3q-18 -54 -119 -54q-86 0 -123 50.5t-37 162.5v101q0 183 160 183q106 0 119 -50h3v253h159v-253h3q12 50 119 50q160 0 160 -183v-101zM598 242q0 77 -11 102t-54 25q-36 0 -47 -24.5
t-11 -102.5q0 -69 10.5 -97t47.5 -28t51 23.5t14 101.5zM316 242q0 78 -11 102.5t-47 24.5q-43 0 -54 -25t-11 -102q0 -78 14 -101.5t51 -23.5t47.5 28t10.5 97z" />
    <glyph glyph-name="afii10087" unicode="&#x445;" horiz-adv-x="504" 
d="M497 486l-128 -229l141 -257h-187l-70 160l-67 -160h-192l145 257l-125 229h184l55 -135l59 135h185z" />
    <glyph glyph-name="afii10088" unicode="&#x446;" horiz-adv-x="573" 
d="M421 0h-368v486h159v-375h149v375h159v-375h53v-275h-152v164z" />
    <glyph glyph-name="afii10089" unicode="&#x447;" horiz-adv-x="538" 
d="M326 292v194h159v-486h-159v181h-102q-35 0 -59 2t-50 10t-41.5 22.5t-25.5 39.5t-10 61v170h159v-153q0 -23 7.5 -32t28.5 -9h93z" />
    <glyph glyph-name="afii10090" unicode="&#x448;" horiz-adv-x="847" 
d="M505 111h134v375h159v-486h-745v486h159v-375h134v375h159v-375z" />
    <glyph glyph-name="afii10091" unicode="&#x449;" horiz-adv-x="847" 
d="M53 0v486h159v-375h134v375h159v-375h134v375h159v-375h53v-275h-152v164h-646z" />
    <glyph glyph-name="afii10092" unicode="&#x44a;" horiz-adv-x="614" 
d="M436 159q0 33 -14.5 44.5t-49.5 11.5h-70v-112h70q33 0 48.5 12t15.5 44zM302 486v-168h85q54 0 87.5 -5t63.5 -20.5t43.5 -48.5t13.5 -85q0 -51 -13.5 -84t-43.5 -49t-63.5 -21t-87.5 -5h-244v375h-130v111h289z" />
    <glyph glyph-name="afii10093" unicode="&#x44b;" horiz-adv-x="773" 
d="M505 159q0 -51 -13.5 -84t-43.5 -49t-63.5 -21t-87.5 -5h-244v486h159v-168h85q54 0 87.5 -5t63.5 -20.5t43.5 -48.5t13.5 -85zM346 159q0 33 -14.5 44.5t-49.5 11.5h-70v-112h70q33 0 48.5 12t15.5 44zM561 486h159v-486h-159v486z" />
    <glyph glyph-name="afii10094" unicode="&#x44c;" horiz-adv-x="524" 
d="M505 159q0 -51 -13.5 -84t-43.5 -49t-63.5 -21t-87.5 -5h-244v486h159v-168h85q54 0 87.5 -5t63.5 -20.5t43.5 -48.5t13.5 -85zM346 159q0 33 -14.5 44.5t-49.5 11.5h-70v-112h70q33 0 48.5 12t15.5 44z" />
    <glyph glyph-name="afii10095" unicode="&#x44d;" horiz-adv-x="515" 
d="M326 288q-4 50 -19 65.5t-53 15.5q-48 0 -63 -14q-14 -13 -13 -52h-159q0 51 11.5 86t30 55t51 30.5t63.5 13.5t79 3q74 0 120.5 -15t70.5 -48.5t32.5 -76t8.5 -109.5q0 -145 -46.5 -196.5t-185.5 -51.5q-136 0 -181 33q-54 40 -54 167h159q0 -48 12.5 -62.5t63.5 -14.5
q41 0 55.5 15t16.5 69h-123v87h123z" />
    <glyph glyph-name="afii10096" unicode="&#x44e;" horiz-adv-x="775" 
d="M507 369q-57 0 -71.5 -23t-14.5 -104q0 -80 14.5 -102.5t71.5 -22.5q54 0 67.5 22t13.5 103q0 82 -13.5 104.5t-67.5 22.5zM262 197h-50v-197h-159v486h159v-178h51q8 109 57.5 146t183.5 37q79 0 124 -9.5t73 -38.5t37 -74.5t9 -126.5q0 -78 -9.5 -123.5t-37 -75
t-73 -39.5t-123.5 -10q-137 0 -187 43t-55 160z" />
    <glyph glyph-name="afii10097" unicode="&#x44f;" horiz-adv-x="573" 
d="M68 337q0 86 47.5 117.5t150.5 31.5h254v-486h-159v177h-75q-39 0 -50 -7t-11 -33q0 -49 -8.5 -78t-29.5 -43t-45.5 -18t-68.5 -4q-24 0 -44 6v90q20 0 28 7t8 25q0 54 16 76t70 27v5q-33 7 -58 34t-25 73zM361 276v107h-70q-33 0 -48.5 -12t-15.5 -44t14 -41.5t50 -9.5
h70z" />
    <glyph glyph-name="afii10071" unicode="&#x451;" horiz-adv-x="531" 
d="M187 303h156q0 51 -17.5 64t-62.5 13q-44 0 -59.5 -15t-16.5 -62zM346 162h156q0 -103 -65 -139q-51 -29 -172 -29q-140 0 -188.5 54t-48.5 194q0 144 47 196.5t190 52.5q138 0 187.5 -51t49.5 -198v-26h-315q0 -66 15 -88.5t63 -22.5q42 0 61.5 11t19.5 46zM223 659v-96
h-101v96h101zM417 659v-96h-100v96h100z" />
    <glyph glyph-name="afii10099" unicode="&#x452;" horiz-adv-x="573" 
d="M363 -145q-29 0 -48 6v109q46 0 46 46v203q0 37 -14 53.5t-52 16.5q-49 0 -66 -25.5t-17 -76.5v-187h-159v488h-41v117h41v89h159v-89h212v-117h-212v-173h6q16 55 51 75.5t95 20.5q80 0 118 -38.5t38 -116.5v-256q0 -145 -157 -145z" />
    <glyph glyph-name="afii10100" unicode="&#x453;" horiz-adv-x="417" 
d="M411 375h-199v-375h-159v486h358v-111zM318 699l46 -102l-209 -66l-26 57z" />
    <glyph glyph-name="afii10101" unicode="&#x454;" horiz-adv-x="515" 
d="M496 194q0 -127 -54 -167q-45 -33 -181 -33q-139 0 -185.5 51.5t-46.5 196.5q0 67 8.5 109.5t32.5 76t70.5 48.5t120.5 15q48 0 79 -3t63.5 -13.5t51 -30.5t30 -55t11.5 -86h-159q1 39 -13 52q-15 14 -63 14q-38 0 -53 -15.5t-19 -65.5h123v-87h-123q2 -54 16.5 -69
t55.5 -15q51 0 63.5 14.5t12.5 62.5h159z" />
    <glyph glyph-name="afii10102" unicode="&#x455;" horiz-adv-x="535" 
d="M482 348h-150q-2 14 -8 23t-17.5 12t-19 4t-20.5 1q-58 0 -70.5 -7t-12.5 -31q0 -15 3.5 -22t22.5 -13.5t57 -7.5q58 -1 89.5 -4t64.5 -11t48.5 -24t25.5 -42.5t10 -67.5t-13 -71.5t-33.5 -48t-53 -27.5t-64.5 -13.5t-74 -3.5h-37.5t-34.5 1t-34.5 3t-30.5 5.5t-29 9.5
t-23 14.5t-20.5 20t-14 26.5t-10.5 34.5t-3 43.5h159q0 -16 5 -27t11 -16.5t18 -8t20 -3t24 -0.5q55 0 69.5 7.5t14.5 35.5q0 33 -17.5 40.5t-66.5 7.5q-99 0 -151 16.5t-69 45.5t-17 82q0 38 7.5 66t25 45t34.5 27t49.5 14.5t55.5 5.5t65 1q30 0 47.5 -0.5t47 -4t47 -11
t36.5 -20t28 -34t9 -50.5v-23z" />
    <glyph glyph-name="afii10103" unicode="&#x456;" horiz-adv-x="238" 
d="M199 486v-486h-159v486h159zM199 694v-122h-159v122h159z" />
    <glyph glyph-name="afii10104" unicode="&#x457;" horiz-adv-x="238" 
d="M199 486v-486h-159v486h159zM64 659v-96h-101v96h101zM258 659v-96h-100v96h100z" />
    <glyph glyph-name="afii10105" unicode="&#x458;" horiz-adv-x="224" 
d="M187 486v-492q0 -79 -38 -112t-119 -33q-29 0 -48 6v109q46 0 46 46v476h159zM187 694v-122h-159v122h159z" />
    <glyph glyph-name="afii10106" unicode="&#x459;" horiz-adv-x="787" 
d="M341 0v375h-104v-236q0 -79 -38 -112t-119 -33q-42 0 -61 6v109h13q46 0 46 46v331h422v-181h55q55 0 87.5 -4t63 -18t44 -44.5t13.5 -79.5q0 -96 -50 -127.5t-158 -31.5h-214zM604 152q0 26 -14 34t-50 8h-40v-83h40q35 0 49.5 7.5t14.5 33.5z" />
    <glyph glyph-name="afii10107" unicode="&#x45a;" horiz-adv-x="787" 
d="M341 0v194h-129v-194h-159v486h159v-181h129v181h159v-181h55q55 0 87.5 -4t63 -18t44 -44.5t13.5 -79.5q0 -96 -50 -127.5t-158 -31.5h-214zM604 152q0 26 -14 34t-50 8h-40v-83h40q35 0 49.5 7.5t14.5 33.5z" />
    <glyph glyph-name="afii10108" unicode="&#x45b;" horiz-adv-x="573" 
d="M212 488v-173h6q16 55 51 75.5t95 20.5q80 0 118 -38.5t38 -116.5v-256h-159v219q0 37 -14 53.5t-52 16.5q-49 0 -66 -25.5t-17 -76.5v-187h-159v488h-41v117h41v89h159v-89h202v-117h-202z" />
    <glyph glyph-name="afii10109" unicode="&#x45c;" horiz-adv-x="573" 
d="M541 0q-19 -6 -48 -6q-84 0 -120.5 29t-36.5 112v16q0 27 -12 36.5t-54 9.5h-58v-197h-159v486h159v-178h52q40 0 50.5 7t10.5 33q0 49 8.5 78t29.5 43t45.5 18t68.5 4q24 0 44 -6v-90q-20 0 -28 -7t-8 -25q0 -54 -16 -76t-70 -27v-2q56 -1 76 -27t20 -86q0 -46 46 -46
v-99zM378 699l46 -102l-209 -66l-26 57z" />
    <glyph glyph-name="afii10110" unicode="&#x45e;" horiz-adv-x="493" 
d="M499 486l-122 -529q-22 -97 -66 -135t-143 -38q-8 0 -17 0.5t-20 1.5t-17 1v112q11 -4 38 -4q16 0 28.5 4.5t19.5 9.5t13.5 18t9.5 20t8.5 26t7.5 27q-50 0 -87 37.5t-54 95.5l-104 353h166l71 -296q5 -21 15.5 -38.5t20.5 -17.5l70 352h162zM414 698q0 -22 -5 -38.5
t-11 -27.5t-20 -18.5t-23 -11t-30.5 -5.5t-31.5 -2h-35h-35t-31 2t-30.5 5.5t-23.5 11t-20 18t-11 27.5t-5 39h105q0 -16 8.5 -24.5t17 -9.5t25.5 -1t25.5 1t17 9.5t8.5 24.5h105z" />
    <glyph glyph-name="afii10193" unicode="&#x45f;" horiz-adv-x="573" 
d="M212 0h-159v486h159v-375h149v375h159v-486h-159v-164h-149v164z" />
    <glyph glyph-name="afii10050" unicode="&#x490;" horiz-adv-x="570" 
d="M543 542h-307v-542h-185v694h307v202h185v-354z" />
    <glyph glyph-name="afii10098" unicode="&#x491;" horiz-adv-x="440" 
d="M428 375h-216v-375h-159v486h223v154h152v-265z" />
    <glyph glyph-name="endash" unicode="&#x2013;" horiz-adv-x="462" 
d="M0 331h462v-152h-462v152z" />
    <glyph glyph-name="emdash" unicode="&#x2014;" horiz-adv-x="925" 
d="M0 331h925v-152h-925v152z" />
    <glyph glyph-name="quoteleft" unicode="&#x2018;" horiz-adv-x="244" 
d="M192 413h-149v155q0 73 33 102.5t126 28.5v-69q-39 -1 -53 -14t-14 -48h57v-155z" />
    <glyph glyph-name="quoteright" unicode="&#x2019;" horiz-adv-x="244" 
d="M52 694h150v-156q0 -73 -33.5 -102.5t-125.5 -28.5v69q39 1 52.5 14t13.5 48h-57v156z" />
    <glyph glyph-name="quotesinglbase" unicode="&#x201a;" horiz-adv-x="244" 
d="M50 155h150v-155q0 -73 -33.5 -102.5t-125.5 -28.5v69q39 1 52.5 14t13.5 48h-57v155z" />
    <glyph glyph-name="quotedblleft" unicode="&#x201c;" horiz-adv-x="452" 
d="M401 413h-150v155q0 73 33 102.5t126 28.5v-69q-39 -1 -53 -14t-14 -48h58v-155zM192 413h-149v155q0 73 33 102.5t126 28.5v-69q-39 -1 -53 -14t-14 -48h57v-155z" />
    <glyph glyph-name="quotedblright" unicode="&#x201d;" horiz-adv-x="452" 
d="M52 694h150v-156q0 -73 -33.5 -102.5t-125.5 -28.5v69q39 1 52.5 14t13.5 48h-57v156zM260 694h150v-156q0 -73 -33.5 -102.5t-125.5 -28.5v69q39 1 52.5 14t13.5 48h-57v156z" />
    <glyph glyph-name="quotedblbase" unicode="&#x201e;" horiz-adv-x="452" 
d="M50 155h150v-155q0 -73 -33.5 -102.5t-125.5 -28.5v69q39 1 52.5 14t13.5 48h-57v155zM258 155h150v-155q0 -73 -33 -102.5t-126 -28.5v69q39 1 52.5 14t13.5 48h-57v155z" />
    <glyph glyph-name="dagger" unicode="&#x2020;" 
d="M413 694v-203h168v-122h-168v-579h-160v579h-168v122h168v203h160z" />
    <glyph glyph-name="daggerdbl" unicode="&#x2021;" 
d="M85 -11v122h168v258h-168v122h168v203h160v-203h168v-122h-168v-258h168v-122h-168v-199h-160v199h-168z" />
    <glyph glyph-name="bullet" unicode="&#x2022;" horiz-adv-x="555" 
d="M451 347q0 -71 -50.5 -122t-123.5 -51q-71 0 -121 50t-51 123q-1 72 49 123t123 51t123.5 -51t50.5 -123z" />
    <glyph glyph-name="ellipsis" unicode="&#x2026;" horiz-adv-x="925" 
d="M228 161v-161h-149v161h149zM537 161v-161h-149v161h149zM846 161v-161h-149v161h149z" />
    <glyph glyph-name="perthousand" unicode="&#x2030;" horiz-adv-x="1209" 
d="M686 694l-409 -694h-111l409 694h111zM818 222v-102q0 -79 -33.5 -102.5t-119.5 -23.5t-117 23t-31 102v102q0 79 31 102.5t116 23.5q87 0 120.5 -23t33.5 -102zM725 134v77q0 39 -10.5 47t-50.5 8q-36 0 -45 -8t-9 -47v-77q0 -42 9 -50.5t45 -8.5q38 0 49.5 9t11.5 50z
M322 574v-101q0 -79 -33 -102.5t-120 -23.5q-86 0 -117 23t-31 102v101q0 79 31 102.5t116 23.5q88 0 121 -23t33 -102zM229 487v76q0 39 -10.5 47.5t-50.5 8.5q-36 0 -45 -8.5t-9 -47.5v-76q0 -42 9 -51t45 -9q38 0 49.5 9t11.5 51zM1188 222v-102q0 -79 -33.5 -102.5
t-119.5 -23.5t-117 23t-31 102v102q0 79 31 102.5t116 23.5q87 0 120.5 -23t33.5 -102zM1095 134v77q0 39 -10.5 47t-50.5 8q-36 0 -45 -8t-9 -47v-77q0 -42 9 -50.5t45 -8.5q38 0 49.5 9t11.5 50z" />
    <glyph glyph-name="guilsinglleft" unicode="&#x2039;" horiz-adv-x="307" 
d="M161 476l104 -56l-88 -168l88 -157l-99 -61l-123 218z" />
    <glyph glyph-name="guilsinglright" unicode="&#x203a;" horiz-adv-x="307" 
d="M141 34l-105 57l89 168l-89 156l99 61l124 -217z" />
    <glyph glyph-name="Euro" unicode="&#x20ac;" 
d="M609 657v-140q-52 50 -162 50q-142 0 -171 -111h292l-36 -87h-268q-1 -6 -1 -24q0 -6 0.5 -16.5t0.5 -13.5h245l-36 -87h-193q27 -101 168 -101q52 0 95 14t66 34v-141q-59 -39 -182 -39q-272 0 -319 233h-91l37 87h45q-1 8 -1 29q0 17 1 25h-82l37 87h53q55 243 320 243
q62 0 111 -13t71 -29z" />
    <glyph glyph-name="afii61352" unicode="&#x2116;" horiz-adv-x="1166" 
d="M230 533l11 -533h-185v694h313l199 -533h7l-11 533h185v-694h-315l-196 533h-8zM807 90h314v-90h-314v90zM964 464q54 0 85 -7.5t47.5 -29t21.5 -49.5t5 -80t-5 -80.5t-21.5 -50t-47.5 -29t-85 -7.5t-85 7.5t-47.5 29t-21.5 50t-5 80.5t5 80t21.5 49.5t47.5 29t85 7.5z
M964 386q-33 0 -43.5 -16t-10.5 -72t10.5 -72.5t43.5 -16.5t43.5 16.5t10.5 72.5t-10.5 72t-43.5 16z" />
    <glyph glyph-name="trademark" unicode="&#x2122;" horiz-adv-x="795" 
d="M799 694v-374h-86v299h-2l-108 -299h-48l-108 299h-2v-299h-86v374h136l84 -221l84 221h136zM318 694v-77h-114v-297h-94v297h-114v77h322z" />
    <glyph glyph-name="radical" unicode="&#x221a;" horiz-adv-x="611" 
d="M590 917l-171 -987l-272 514l-95 -41l-46 80l204 90l167 -315l118 671z" />
    <glyph glyph-name="infinity" unicode="&#x221e;" horiz-adv-x="839" 
d="M794 266q0 -67 -49 -123t-119 -57q-100 0 -198 96q-96 -96 -196 -96q-71 -1 -120.5 55.5t-49.5 124.5q0 72 52 125.5t125 53.5q47 0 85.5 -20.5t104.5 -78.5q62 57 101 78t87 21q73 0 125 -53.5t52 -125.5zM674 260q0 23 -15 43.5t-42 20.5q-21 0 -38.5 -8t-26.5 -15.5
t-41 -36.5q35 -35 55.5 -47.5t50.5 -12.5q22 0 39.5 16.5t17.5 39.5zM344 263q-31 28 -42 37t-27.5 16.5t-35.5 7.5q-27 0 -42 -21t-15 -43q0 -25 19 -40.5t43 -15.5q20 0 37 7.5t28.5 17.5t34.5 34z" />
    <glyph glyph-name="approxequal" unicode="&#x2248;" horiz-adv-x="600" 
d="M592 421q-44 -64 -108 -87.5t-120 -8.5l-130 35q-18 5 -34 4.5t-26.5 -3t-21.5 -10.5t-16.5 -13.5l-15.5 -16l-13 -13.5l-97 49q119 126 249 92l131 -34q26 -7 60 6q24 8 56 46zM592 236q-45 -63 -108.5 -87t-119.5 -9l-130 35q-18 5 -34 4.5t-26.5 -3t-21.5 -10.5
t-16.5 -13.5l-15.5 -16l-13 -13.5l-97 49q119 127 249 93l131 -35q25 -7 60 7q26 9 56 47z" />
    <glyph glyph-name="notequal" unicode="&#x2260;" horiz-adv-x="555" 
d="M250 309h-204v106h263l57 103h104l-57 -103h96v-106h-155l-59 -106h214v-107h-274l-53 -96h-104l53 96h-85v107h145z" />
    <glyph glyph-name="lessequal" unicode="&#x2264;" horiz-adv-x="555" 
d="M509 227l-463 174v111l463 174v-119l-313 -110v-2l313 -110v-118zM509 27l-463 174v118l463 -174v-118z" />
    <glyph glyph-name="greaterequal" unicode="&#x2265;" horiz-adv-x="555" 
d="M513 401l-463 -174v118l313 110v2l-313 110v119l463 -174v-111zM513 201l-463 -174v118l463 174v-118z" />
    <glyph glyph-name="nbspace" horiz-adv-x="462" 
 />
    <glyph glyph-name="hyphenminus" horiz-adv-x="252" 
d="M0 331h252v-152h-252v152z" />
    </font>
</defs>
</svg>
